<?xml version="1.0" encoding="UTF-8" standalone="no"?>
<!-- Created with Inkscape (http://www.inkscape.org/) -->

<svg
   width="210mm"
   height="210mm"
   viewBox="0 0 210 210"
   version="1.1"
   id="svg1"
   inkscape:version="1.4 (e7c3feb1, 2024-10-09)"
   sodipodi:docname="edmil_sketch.svg"
   xmlns:inkscape="http://www.inkscape.org/namespaces/inkscape"
   xmlns:sodipodi="http://sodipodi.sourceforge.net/DTD/sodipodi-0.dtd"
   xmlns="http://www.w3.org/2000/svg"
   xmlns:svg="http://www.w3.org/2000/svg">
  <sodipodi:namedview
     id="namedview1"
     pagecolor="#ffffff"
     bordercolor="#000000"
     borderopacity="0.25"
     inkscape:showpageshadow="2"
     inkscape:pageopacity="0.0"
     inkscape:pagecheckerboard="0"
     inkscape:deskcolor="#d1d1d1"
     inkscape:document-units="mm"
     inkscape:zoom="0.69256046"
     inkscape:cx="486.60011"
     inkscape:cy="355.9256"
     inkscape:window-width="1440"
     inkscape:window-height="900"
     inkscape:window-x="0"
     inkscape:window-y="0"
     inkscape:window-maximized="0"
     inkscape:current-layer="layer1" />
  <defs
     id="defs1" />
  <g
     inkscape:label="Layer 1"
     inkscape:groupmode="layer"
     id="layer1">
    <path
       id="path2-7"
       style="fill:#000000;stroke-width:1.39063"
       d="m 136.8879,42.3528 3.7e-4,0.0016 c -0.76259,-0.08235 -1.262,-0.112971 -1.57356,-0.08718 -0.623,0.05036 -0.49238,0.326514 -0.21452,0.876883 0.39647,0.781631 0.75806,0.97535 1.22153,0.655582 0.44043,-0.303938 0.75234,-0.265937 0.94176,0.109268 0.15549,0.310403 0.55644,0.584481 0.89096,0.610066 0.36539,0.02855 0.32054,-0.178337 -0.11278,-0.516397 -0.50469,-0.39386 0.19572,-0.4601 2.33359,-0.221286 1.78307,0.199217 2.40866,0.383508 1.50297,0.443024 -1.19505,0.07818 -0.40416,0.475055 3.44458,1.72822 2.74813,0.894819 6.64451,2.61491 8.65793,3.821962 2.01338,1.207048 4.55606,2.958533 5.65035,3.892447 1.09424,0.933952 2.82258,2.8946 3.84089,4.357028 1.01826,1.462435 2.22729,3.809335 2.68738,5.215679 0.46005,1.40634 0.8833,3.531826 0.93983,4.722862 0.0665,1.399032 -0.29238,3.075974 -1.01374,4.737257 -0.76463,1.761781 -2.13435,3.479789 -4.34943,5.45713 -2.06829,1.846362 -4.63151,3.485365 -7.11527,4.548878 -2.13544,0.914374 -5.54962,1.954421 -7.58683,2.31078 -2.03717,0.356311 -6.24093,0.553546 -9.34126,0.438355 -3.29684,-0.122677 -7.17521,-0.592054 -9.34307,-1.132242 -2.03869,-0.507688 -4.91125,-1.652305 -6.38321,-2.542912 -1.47196,-0.890637 -3.37291,-2.596657 -4.22432,-3.791419 -0.85141,-1.194764 -1.87765,-3.377304 -2.28005,-4.849451 -0.40243,-1.472178 -0.76727,-3.876519 -0.81138,-5.343852 -0.0621,-2.069022 0.20569,-3.199718 1.19387,-5.035616 0.70075,-1.302046 1.29411,-2.481675 1.31766,-2.620956 0.0233,-0.139513 0.92119,-1.350242 1.99424,-2.691455 1.07304,-1.341184 3.15565,-3.283308 4.6276,-4.31589 1.47194,-1.032592 3.67196,-2.288623 4.88873,-2.791206 1.43794,-0.59389 2.6468,-0.762306 3.45403,-0.481581 0.68308,0.237442 1.26134,0.214455 1.28498,-0.0511 0.0232,-0.265585 -0.49838,-0.992032 -1.15949,-1.614523 -0.9571,-0.901189 -1.52755,-1.068435 -2.80358,-0.822377 -0.88137,0.170038 -2.79008,0.929467 -4.24056,1.687822 -1.45052,0.758311 -3.91277,2.547475 -5.47257,3.976067 -1.55979,1.428641 -3.46077,3.608367 -4.2238,4.844189 -0.76306,1.235848 -1.76392,3.383503 -2.22409,4.772166 -0.59364,1.791452 -0.77089,3.418442 -0.61076,5.601152 0.12423,1.691994 0.35783,3.527686 0.51975,4.080012 0.26211,0.893967 0.13012,0.85891 -1.20483,-0.324651 -0.8346,-0.740091 -2.23784,-1.40162 -3.1653,-1.491162 -0.91645,-0.08863 -2.27073,-0.03858 -3.00909,0.110819 -1.26855,0.256864 -1.36179,0.130028 -1.69899,-2.297059 -0.19643,-1.412666 -0.43852,-4.629971 -0.53856,-7.149401 -0.10005,-2.51944 -0.32608,-4.939778 -0.50159,-5.379566 -0.1754,-0.439788 -0.63796,-0.828268 -1.02823,-0.863014 -0.5402,-0.04809 -0.74813,0.674052 -0.87084,3.027533 -0.0889,1.700252 0.16365,5.695694 0.56101,8.878513 0.5169,4.140455 0.55224,5.929816 0.12336,6.288566 -0.32978,0.27587 -0.78301,0.485411 -1.00745,0.465428 -0.22434,-0.01997 -0.3763,-0.394347 -0.33737,-0.831596 0.0419,-0.47118 -0.18223,-0.668881 -0.550407,-0.484286 -0.386275,0.193527 -0.463014,0.09991 -0.202577,-0.247868 0.230408,-0.307829 -0.0096,-1.290832 -0.533397,-2.184462 -0.523583,-0.893624 -1.429346,-1.931541 -2.012523,-2.306817 -1.007958,-0.648644 -1.022968,-0.631037 -0.314673,0.358496 0.409796,0.572478 1.070765,1.854739 1.468714,2.849841 0.44422,1.110822 0.618798,2.985022 0.452323,4.854815 -0.20883,2.345572 -0.665426,3.671664 -1.984393,5.768344 -1.211957,1.926541 -2.989162,3.641561 -6.080968,5.867953 -2.809024,2.022787 -6.086207,3.798402 -9.178385,4.972193 -2.645146,1.004057 -6.332774,2.041173 -8.194395,2.30545 -1.861585,0.264311 -5.269585,0.316796 -7.57402,0.115809 -2.963086,-0.256742 -4.966058,-0.738073 -6.839606,-1.635681 -1.457166,-0.698177 -3.078776,-1.825438 -3.604167,-2.505601 -0.525405,-0.680125 -1.373776,-2.260758 -1.884936,-3.512572 -0.700344,-1.715036 -0.843847,-3.099688 -0.581424,-5.619102 0.263889,-2.534273 0.627364,-3.639635 1.50025,-4.566837 0.633455,-0.672715 1.072177,-1.598304 0.975398,-2.057386 -0.09675,-0.459055 0.354419,-1.366299 1.002799,-2.015527 l 1.178535,-1.180677 -0.994641,1.370332 c -0.547384,0.753435 -0.889526,1.495949 -0.760193,1.650616 0.129284,0.154543 0.711767,-0.449172 1.295152,-1.342546 0.583434,-0.893348 1.114757,-1.79297 1.180334,-1.999197 0.06564,-0.20619 0.168909,-0.606635 0.229139,-0.889588 0.06132,-0.282786 0.674991,-0.359599 1.365079,-0.170032 0.860715,0.236653 1.274215,0.1163 1.318966,-0.386331 0.03585,-0.402276 -0.145229,-0.750157 -0.402251,-0.773041 -0.257311,-0.02293 -0.608259,0.235166 -0.781004,0.573268 -0.236669,0.463418 -0.310695,0.460569 -0.299633,-0.0085 0.0088,-0.342727 0.525198,-0.840611 1.148545,-1.106046 0.796485,-0.339272 1.015361,-0.32442 0.736636,0.04743 -0.218128,0.291584 -0.07491,0.558832 0.32168,0.594141 0.395318,0.03517 1.770555,-0.563795 3.056001,-1.33103 1.285404,-0.76723 3.19652,-1.697402 4.246311,-2.067079 1.049804,-0.369717 2.002776,-1.039416 2.117981,-1.488217 0.122711,-0.477248 -0.230522,-0.973645 -0.849187,-1.195714 -0.581844,-0.208924 -1.646118,-0.214457 -2.365227,-0.01188 -0.719135,0.202543 -2.737969,1.279305 -4.486464,2.39278 -1.748466,1.113479 -4.348231,3.136302 -5.777629,4.494691 -1.429459,1.358394 -3.462069,3.896746 -4.516775,5.640933 -1.584044,2.619594 -1.967752,3.764024 -2.204559,6.580401 -0.260105,3.083682 -0.368157,3.356856 -1.132611,2.855848 -0.464809,-0.304711 -2.985373,-0.716966 -5.601955,-0.916408 -2.616465,-0.200428 -5.463771,-0.229509 -6.326632,-0.06678 -1.0609,0.199934 -0.32314,0.328317 2.278503,0.397411 2.63366,0.06977 3.591489,0.239544 3.036972,0.537586 -0.445499,0.239555 -1.269431,0.401555 -1.831272,0.359915 -0.561753,-0.04297 -1.299949,0.07015 -1.640735,0.24769 -0.340881,0.177339 1.862208,0.546751 4.895925,0.822416 3.033586,0.277119 5.421899,0.314038 5.308001,0.0866 -0.114136,-0.227258 0.123703,-0.38328 0.526909,-0.347381 0.403342,0.03594 0.959294,0.785568 1.235343,1.665888 0.275971,0.880281 1.518872,2.693369 2.762425,4.029104 1.451164,1.558725 3.204476,2.799986 4.894057,3.465575 1.447839,0.570407 3.433829,1.127907 4.413729,1.238634 0.980021,0.108935 3.880366,0.01817 6.445288,-0.205402 2.564921,-0.223546 5.7366,-0.769192 7.048588,-1.212658 1.311997,-0.443465 3.048017,-1.090007 3.857102,-1.436611 0.809086,-0.346613 1.742279,-0.439611 2.074468,-0.207006 0.332194,0.232577 0.455017,0.224848 0.271935,-0.01836 -0.183191,-0.242792 0.812217,-1.033803 2.21241,-1.756326 1.400192,-0.722514 2.58554,-1.220235 2.633944,-1.106615 0.04841,0.113752 0.464471,-0.22361 0.924734,-0.74828 0.460254,-0.52457 1.143097,-0.935724 1.51752,-0.914956 0.374272,0.02247 0.6443,-0.262075 0.599091,-0.627855 -0.04505,-0.365696 0.149398,-0.49197 0.432719,-0.280029 0.283457,0.211983 0.911405,0.114075 1.396135,-0.22174 0.484611,-0.33435 1.848842,-1.701302 3.031402,-3.035948 1.182602,-1.334672 2.620486,-3.613003 3.195916,-5.064371 0.7193,-1.81414 1.69461,-3.133786 3.11992,-4.222365 1.14025,-0.870861 2.78842,-1.823688 3.66303,-2.117974 0.87464,-0.294244 2.1967,-0.362604 2.93749,-0.151436 0.82698,0.235808 1.81053,1.197538 2.54743,2.492964 0.66011,1.160362 1.41653,2.129239 1.68123,2.152806 0.26807,0.02382 0.40498,-0.70319 0.31017,-1.642429 -0.1487,-1.474015 -0.10402,-1.551526 0.35126,-0.612048 0.28655,0.59106 1.12961,2.01439 1.87343,3.163954 0.74386,1.149537 2.1331,2.676431 3.08791,3.391925 0.95484,0.715508 3.07102,1.90128 4.70232,2.635541 1.63131,0.734273 3.52864,1.514508 4.21614,1.733099 0.68748,0.218699 3.31424,0.601989 5.83697,0.852248 2.52281,0.249915 5.97728,0.428246 7.67683,0.396075 1.69953,-0.03218 4.11176,-0.29243 5.35996,-0.578561 1.24824,-0.28605 2.4699,-0.369971 2.71542,-0.186252 0.24553,0.183687 0.46817,0.09097 0.49462,-0.206029 0.0268,-0.297061 0.39845,-0.509792 0.82746,-0.471596 0.42882,0.03817 2.27203,-0.520822 4.09565,-1.243133 2.08788,-0.826939 4.72045,-2.511084 7.10952,-4.548352 2.08671,-1.779385 4.28649,-4.156887 4.88854,-5.283061 0.60202,-1.126189 1.37601,-3.526316 1.72003,-5.333778 0.45874,-2.409833 0.46108,-3.095153 0.008,-2.569956 -0.49752,0.57677 -0.54927,0.496703 -0.26444,-0.409538 0.23587,-0.750509 0.11314,-1.146351 -0.36367,-1.188803 -0.39457,-0.03511 -0.70058,-0.254262 -0.67986,-0.486991 0.0205,-0.23296 1.4598,-1.738558 3.19752,-3.345934 1.73769,-1.60734 5.13477,-4.178152 7.54942,-5.713341 2.4147,-1.535186 4.64049,-2.930474 4.94581,-3.100005 0.30552,-0.169664 0.41508,-0.47497 0.24412,-0.679176 -0.17074,-0.204116 -0.97027,0.05863 -1.77709,0.584713 -0.80682,0.525961 -1.9937,0.908878 -2.63718,0.851587 -0.64353,-0.05733 -1.53338,0.199243 -1.97713,0.570533 -0.44377,0.371118 -0.92983,0.528091 -1.08053,0.347897 -0.15083,-0.180306 -0.98688,0.277015 -1.85802,1.0159 -0.87111,0.738919 -2.70196,2.215641 -4.06852,3.280838 l -2.4847,1.935983 -0.72787,-1.451061 c -0.40043,-0.798388 -1.3281,-2.229195 -2.0615,-3.178626 -0.73345,-0.949435 -2.49511,-2.754585 -3.91463,-4.012359 -1.41947,-1.257759 -3.66809,-2.960587 -4.99696,-3.783949 -1.32892,-0.823367 -4.19447,-2.305794 -6.36871,-3.294407 -3.11625,-1.416962 -5.11895,-1.947974 -9.4581,-2.509023 -1.36423,-0.176382 -2.39013,-0.30866 -3.15277,-0.390691 z M 79.579184,59.63697 c -5.885062,-0.513126 -7.820976,-0.499042 -9.467629,0.0629 -1.13845,0.388509 -1.95141,0.849067 -1.806226,1.022586 0.145279,0.173678 0.724202,0.119813 1.286385,-0.119451 0.562176,-0.239277 2.161022,-0.435327 3.553082,-0.434371 1.392038,7.63e-4 2.062023,0.06734 1.489371,0.147129 -0.57269,0.07977 -1.291546,0.35853 -1.59761,0.619888 -0.37725,0.322204 -0.05496,0.416233 1.002319,0.291575 0.857337,-0.101017 3.627648,-0.02816 6.155667,0.163107 3.372128,0.255057 5.650304,0.751299 8.554065,1.8594 2.176841,0.830803 4.434477,1.606041 5.016526,1.722909 0.582088,0.116879 1.481721,0.511113 1.999292,0.876322 0.517588,0.365028 1.112533,0.686261 1.322231,0.713314 0.20975,0.02567 0.391037,-0.06254 0.403197,-0.199121 0.01216,-0.13654 -0.790378,-0.865499 -1.783626,-1.620287 -0.993235,-0.754798 -3.363809,-2.067858 -5.267607,-2.917772 -3.045788,-1.359646 -4.34988,-1.622506 -10.859436,-2.188133 z m -1.113493,0.205404 c 0.369421,0.03591 0.718108,0.09985 0.956454,0.183212 l -4.6e-5,5.15e-4 c 0.476342,0.170997 -0.053,0.225698 -1.17335,0.120177 -1.121609,-0.106889 -1.511587,-0.245752 -0.866208,-0.311105 l 8.9e-5,-9.96e-4 c 0.322609,-0.03302 0.713525,-0.02688 1.083058,0.0082 z m 26.056919,16.137892 c -0.39458,-0.03511 -0.86459,0.236565 -1.04411,0.60328 -0.17968,0.36678 -0.0309,3.810961 0.33082,7.652824 0.36166,3.84185 0.87818,8.557878 1.14732,10.480401 0.26915,1.922524 0.79649,4.265051 1.17174,5.206287 0.37519,0.941272 1.20176,2.552442 1.83748,3.579422 0.63572,1.02704 1.25849,1.63074 1.384,1.34243 0.12536,-0.28828 -0.13752,-1.79935 -0.58452,-3.35841 -0.44711,-1.559092 -1.34416,-7.278149 -1.99329,-12.708773 -0.64913,-5.430655 -1.25939,-10.517388 -1.35624,-11.303665 -0.0969,-0.786269 -0.49864,-1.458668 -0.8932,-1.493796 z m 28.3218,20.003892 c -0.34081,-0.03031 -0.49437,0.921698 -0.43191,2.677506 0.0634,1.787466 -0.25385,3.701286 -0.92194,5.565146 -0.60512,1.68792 -2.06052,4.05678 -3.5858,5.83641 -1.41191,1.64736 -4.40732,4.45014 -6.65673,6.2281 -2.24943,1.77797 -5.3053,3.75337 -6.79135,4.38938 -1.48601,0.63604 -4.08469,1.38702 -5.77413,1.6701 -1.68945,0.28307 -4.87637,0.35443 -7.08232,0.15802 -2.327867,-0.20723 -5.827942,-0.97166 -8.341582,-1.8218 -2.382049,-0.80563 -4.765017,-1.79108 -5.295071,-2.18973 -0.530095,-0.39866 -1.584881,-0.93777 -2.344186,-1.19809 -0.759264,-0.26047 -2.600636,-1.90955 -4.091912,-3.66445 -1.583112,-1.863 -2.902207,-4.00767 -3.170665,-5.15445 -0.264806,-1.13107 -0.791305,-1.99366 -1.240986,-2.0337 -0.594844,-0.0528 -0.729596,0.27222 -0.56399,1.36406 0.119456,0.78825 1.068004,2.76224 2.107483,4.38687 1.039439,1.62463 3.105569,3.95181 4.59172,5.17148 1.486147,1.21972 4.225802,2.93332 6.08801,3.80742 1.862197,0.87413 4.357462,1.72195 5.544852,1.88408 1.18739,0.16203 2.148142,0.4164 2.134853,0.56571 -0.01331,0.14944 1.904989,0.44404 4.262934,0.65398 2.36925,0.21089 4.17951,0.16729 4.04702,-0.0967 -0.13588,-0.27109 0.57461,-0.25072 1.63862,0.0499 1.42647,0.40152 1.79761,0.3685 1.54466,-0.13589 -0.23035,-0.4596 -0.0865,-0.54289 0.47025,-0.27045 0.44222,0.21637 0.97037,0.17227 1.17357,-0.0994 0.20335,-0.27157 0.6793,-0.34308 1.0574,-0.15799 0.37811,0.185 2.02943,-0.0443 3.6693,-0.51015 2.24404,-0.63724 4.0925,-1.75829 7.47438,-4.53246 2.47132,-2.02724 4.45746,-3.9786 4.41309,-4.33654 -0.0443,-0.35793 0.6221,-1.14313 1.48141,-1.74464 0.92875,-0.65007 1.56876,-1.54373 1.5788,-2.20342 0.01,-0.61038 0.15825,-1.00434 0.33059,-0.87537 0.17236,0.12914 1.05202,-1.09567 1.95441,-2.72198 1.12997,-2.03645 1.71819,-3.82712 1.88956,-5.75189 0.13658,-1.537111 0.051,-3.259644 -0.19094,-3.828165 -0.24233,-0.56852 -0.67855,-1.054962 -0.9694,-1.080858 z" />
    <path
       id="path2-7-5"
       style="fill:#000000;stroke-width:1.39063"
       d="m 176.46794,143.91702 -4.5e-4,9e-4 c -0.34627,-0.11405 -0.52077,0.18647 -0.77907,1.08054 -0.22653,0.78379 -0.98563,4.1028 -1.68698,7.37488 -0.70133,3.27207 -1.34441,7.95001 -1.42884,10.39621 -0.0845,2.44623 0.0686,4.8994 0.33977,5.45174 0.27119,0.55227 0.63638,1.08516 0.81263,1.18292 0.17664,0.0964 0.72479,-0.10593 1.21898,-0.45461 0.68109,-0.48055 0.82405,-0.99903 0.5905,-2.1418 -0.16943,-0.82912 -0.27589,-2.75806 -0.23684,-4.2866 l 0.0706,-2.77893 2.59735,-0.67953 c 1.42868,-0.37375 4.06397,-0.84199 5.85614,-1.03997 1.79217,-0.19801 3.54477,-0.68578 3.89483,-1.08433 0.37097,-0.42256 0.85234,-0.48751 1.15434,-0.15635 0.34037,0.37322 0.67948,0.24632 0.98845,-0.36962 0.25864,-0.51561 0.32359,-1.17495 0.14472,-1.46525 -0.17886,-0.29016 -1.4503,-0.45319 -2.82617,-0.36143 -1.37578,0.0916 -4.47198,0.49739 -6.88045,0.90134 l -4.37945,0.73429 0.8711,-5.73348 c 0.65721,-4.32722 0.6799,-5.87841 0.0915,-6.32406 -0.16313,-0.12334 -0.29786,-0.20748 -0.41264,-0.24693 z m -9.79033,10.14473 c -0.15799,-0.14 -0.43636,-0.24306 -0.8341,-0.31381 -0.65216,-0.11335 -2.14055,0.0827 -3.3072,0.43617 -1.16666,0.35348 -3.11514,1.34626 -4.33054,2.20532 -1.21536,0.85905 -3.00807,2.52168 -3.98351,3.69524 -0.9755,1.17354 -1.99349,2.90013 -2.26243,3.83708 -0.26877,0.937 -0.21987,2.61769 0.10906,3.73456 0.42927,1.45754 0.39387,2.01005 -0.12577,1.95868 -0.41922,-0.0417 -1.20553,-1.88825 -1.86806,-4.38972 -0.62909,-2.37526 -1.15339,-4.75434 -1.16479,-5.28688 -0.0114,-0.53258 -0.26174,-1.79869 -0.55723,-2.8135 -0.29553,-1.01481 -0.97851,-2.06627 -1.51692,-2.33636 -0.53845,-0.2701 -1.63816,-0.24154 -2.4447,0.0629 -0.80653,0.30446 -2.4529,1.64331 -3.65811,2.97626 -1.56429,1.72999 -2.72029,3.60977 -4.03994,6.56801 -1.08664,2.43581 -1.89201,5.00784 -1.95405,6.23959 -0.0579,1.15258 0.11731,2.20719 0.38982,2.3439 0.27239,0.13663 0.797,-0.026 1.16571,-0.36224 0.36875,-0.33632 0.88989,-1.68635 1.15805,-3.00006 0.26815,-1.31371 0.80614,-3.28522 1.19451,-4.38088 0.39335,-1.10993 1.7164,-3.16643 2.988,-4.64384 1.25533,-1.45846 2.25888,-2.91555 2.23021,-3.2381 -0.0285,-0.32265 0.46025,-0.60022 1.087,-0.61679 0.62663,-0.0165 1.23481,0.0176 1.35119,0.0756 0.11641,0.0584 0.39542,2.0889 0.61994,4.51173 0.22452,2.42282 0.95386,5.88188 1.62087,7.68772 0.81311,2.20129 1.61262,3.48456 2.42661,3.89288 1.10029,0.55194 1.26799,0.46102 1.7863,-0.96669 l 0.57172,-1.57539 2.10396,1.25372 c 1.64786,0.98198 2.652,1.21356 4.63387,1.06704 1.39161,-0.1029 3.66425,-0.52088 5.05083,-0.92939 1.38662,-0.40846 2.61044,-0.91999 2.71905,-1.13649 0.10856,-0.21642 0.0891,-0.94853 -0.0436,-1.62679 -0.23823,-1.21794 -0.25622,-1.22818 -1.51004,-0.70199 -0.69782,0.29221 -2.65344,0.72143 -4.34578,0.95411 -2.47957,0.34091 -3.52217,0.20218 -5.37224,-0.71187 -2.14415,-1.05947 -2.26502,-1.21821 -1.82928,-2.41327 0.34857,-0.95566 0.92365,-1.35119 2.27193,-1.56023 0.99292,-0.15396 3.35043,-1.40755 5.23885,-2.78629 2.78939,-2.03643 3.48977,-2.79139 3.73227,-4.02305 0.16427,-0.8338 0.36258,-1.74157 0.44127,-2.0172 0.0788,-0.27565 0.24798,-0.78842 0.37611,-1.13931 0.0791,-0.2139 0.0395,-0.39055 -0.1188,-0.53077 z m -1.62974,2.11364 c 0.0607,0.0708 0.0288,0.15865 -0.12012,0.24615 -0.27859,0.1718 -0.70079,0.21562 -0.93771,0.0968 -0.23702,-0.11888 -0.38966,-0.29738 -0.34014,-0.3961 0.0497,-0.099 0.47129,-0.14192 0.93726,-0.0958 0.24276,0.024 0.39977,0.0786 0.46063,0.14895 z m -1.36694,1.02616 c -0.0779,0.15534 -1.01546,0.92972 -2.08357,1.72063 -1.06812,0.79089 -2.65344,1.81896 -3.52361,2.28518 -0.87013,0.4662 -2.06094,1.41695 -2.64521,2.11184 -1.05585,1.25596 -1.05788,1.25483 -0.47256,-0.0284 0.32389,-0.70991 1.68274,-2.09082 3.01992,-3.06859 1.33716,-0.97783 3.19954,-2.12067 4.13892,-2.54021 0.93937,-0.41956 1.64399,-0.63574 1.56612,-0.48051 z m -52.36674,-15.64844 c -0.30455,-0.15277 -0.63116,0.21465 -0.79177,0.8915 -0.15038,0.63359 -0.705,3.77212 -1.23211,6.97403 -0.52713,3.20188 -0.95481,6.98379 -0.95086,8.4038 0.004,1.42003 0.29855,5.62821 0.65477,9.35202 0.4411,4.61081 0.91489,6.9046 1.48517,7.19067 0.46059,0.23104 0.99852,0.0989 1.19519,-0.2931 0.19675,-0.39222 0.0858,-3.34785 -0.24611,-6.56854 -0.33192,-3.22072 -0.63934,-7.67901 -0.68386,-9.90717 -0.0445,-2.22817 0.13102,-5.87875 0.3905,-8.11195 0.25953,-2.23319 0.52241,-4.8721 0.58449,-5.86512 0.0624,-0.99299 -0.12024,-1.92307 -0.40543,-2.06614 z m -10.26324,8.60264 c -0.37296,-0.1866 -1.065042,0.11041 -1.538164,0.65988 -0.473042,0.54983 -0.889791,1.39093 -0.945148,1.85983 -0.04695,0.47311 0.310459,0.97211 0.794479,1.10849 0.483945,0.13648 0.987393,-0.0175 1.118293,-0.3415 0.13042,-0.32422 0.46475,-1.11874 0.74254,-1.76722 0.29778,-0.69465 0.22763,-1.31856 -0.17159,-1.51926 z m 25.00723,18.84728 c -0.58734,-0.29454 -1.27149,-0.46811 -1.52016,-0.38562 -0.2487,0.0826 -0.36158,0.54218 -0.25069,1.02069 0.11095,0.47855 0.58798,1.06329 1.06069,1.30043 0.5543,0.27805 1.0229,0.10683 1.31909,-0.48361 0.32795,-0.65377 0.15417,-1.06895 -0.60846,-1.45165 z m -35.356177,-14.87054 2.32e-4,7.1e-4 6.84e-4,-2.5e-4 z m 2.32e-4,7.1e-4 c -0.171196,-0.0848 -0.750144,0.46209 -1.287923,1.21554 -0.538142,0.75422 -1.659324,3.09174 -2.491143,5.19544 -0.831868,2.10367 -1.731452,4.03734 -2.000268,4.29639 -0.268563,0.25935 -0.788292,0.32087 -1.155459,0.13669 -0.367167,-0.18418 -1.250537,-2.0456 -1.962931,-4.13609 -0.71237,-2.09055 -1.572945,-3.9399 -1.911871,-4.10992 -0.371995,-0.18659 -0.87453,0.20708 -1.268665,0.9928 -0.359117,0.71589 -0.830434,2.61916 -1.046883,4.22945 -0.216363,1.61034 -0.390812,4.07611 -0.388001,5.48036 0.0029,1.40432 0.08211,2.91493 0.176347,3.3561 0.09419,0.44131 0.339644,0.8867 0.545725,0.99008 0.206138,0.10341 0.580901,0.0608 0.832329,-0.0941 0.251216,-0.15496 0.552763,-2.77515 0.670166,-5.82273 0.117484,-3.0476 0.316332,-4.88086 0.441643,-4.07402 0.125357,0.80689 0.760883,2.35012 1.411963,3.42958 0.651063,1.07943 1.783621,2.26375 2.516989,2.63163 0.818168,0.41042 1.59245,0.43285 2.003837,0.0576 0.368732,-0.33625 1.337447,-2.23527 2.152656,-4.21994 l 1.484233,-3.60769 0.07895,3.25867 c 0.04325,1.79229 0.450877,4.12447 0.90586,5.18185 0.577124,1.34133 1.355551,2.18719 2.574324,2.79856 1.208427,0.60618 1.955081,0.68654 2.422552,0.26016 0.37168,-0.33893 0.577409,-0.91229 0.457175,-1.27441 -0.120201,-0.36219 -0.801928,-0.9475 -1.515043,-1.30055 -0.713056,-0.35322 -1.448499,-0.97677 -1.633948,-1.38622 -0.18547,-0.40942 -0.454625,-3.15896 -0.598219,-6.10979 -0.143603,-2.95085 -0.450518,-5.78228 -0.682329,-6.29247 -0.23155,-0.50998 -0.561321,-0.99689 -0.732108,-1.08299 z m 9.667485,7.14009 c -0.22576,-0.11325 -0.627252,0.008 -0.892646,0.26853 -0.265353,0.26096 -0.63966,1.55533 -0.832032,2.87686 -0.192353,1.32154 -0.239284,3.16733 -0.103575,4.10196 0.155189,1.06917 0.663012,1.9086 1.368878,2.26269 0.988085,0.49566 1.162985,0.39477 1.467225,-0.84001 0.19004,-0.77124 0.14094,-1.90926 -0.10948,-2.52934 -0.25046,-0.62009 -0.46269,-2.20942 -0.47171,-3.53143 -0.009,-1.32198 -0.201,-2.49606 -0.42666,-2.60926 z M 71.440648,147.90684 c -0.188864,-0.0945 -0.547885,-0.0469 -0.796991,0.10667 -0.249274,0.15348 -0.445735,1.79508 -0.43761,3.64763 0.0081,1.8525 -0.130032,3.66136 -0.305221,4.01989 -0.175246,0.35829 -0.383782,0.45718 -0.462496,0.22011 -0.07869,-0.23711 -1.037368,-0.49197 -2.129113,-0.56853 -1.092181,-0.0757 -2.559889,0.0161 -3.261608,0.20352 -0.701667,0.18743 -2.275914,1.1279 -3.498644,2.09015 -1.222747,0.96221 -2.571194,2.43843 -2.996606,3.28031 -0.425618,0.84178 -0.791871,2.36684 -0.814214,3.38879 -0.02236,1.02192 0.440292,2.90944 1.027803,4.19425 0.587568,1.28487 1.443737,2.76108 1.903021,3.28048 0.459313,0.51941 1.175689,1.13178 1.591917,1.3605 0.41611,0.22887 1.362262,0.47714 2.101863,0.55253 0.855757,0.0871 1.853743,-0.37339 2.744858,-1.26748 0.884042,-0.88695 1.786973,-2.45684 2.448791,-4.25699 l 1.047851,-2.85184 0.995353,3.37033 c 0.592787,2.00781 1.38774,3.56376 1.965845,3.84906 0.533812,0.2633 1.334082,0.44191 1.777823,0.39751 0.443795,-0.0447 0.983711,-0.60785 1.200145,-1.25148 0.301282,-0.89589 0.107467,-1.31979 -0.829385,-1.80993 -0.673943,-0.35016 -1.448085,-1.21875 -1.722451,-1.9255 -0.274326,-0.70674 -0.519682,-3.39653 -0.545694,-5.97707 -0.02602,-2.58054 -0.185986,-6.75912 -0.354883,-9.28599 -0.168824,-2.52638 -0.460983,-4.6711 -0.649886,-4.76668 z m -1.954313,8.76301 c 0.158665,0.0785 0.222815,0.81888 0.142984,1.64541 -0.07976,0.82658 -0.991162,3.82498 -2.025776,6.6638 -1.701424,4.66852 -2.012598,5.23802 -3.25525,5.95917 -0.755645,0.43848 -1.622311,0.66135 -1.92621,0.49643 -0.304203,-0.16468 -1.020038,-0.97703 -1.592269,-1.80237 -0.572236,-0.82527 -1.230775,-2.36906 -1.463719,-3.43127 -0.269198,-1.22731 -0.11448,-2.65898 0.425257,-3.92729 0.623003,-1.46431 1.51173,-2.45618 3.334372,-3.72313 1.366458,-0.94978 3.291369,-1.79387 4.277886,-1.87562 0.986526,-0.0817 1.923956,-0.0836 2.082725,-0.005 z m -21.212821,-3.19519 c -0.734295,-0.36834 -2.54482,-0.54285 -4.023715,-0.38749 -1.478874,0.15532 -4.365869,0.89853 -6.415526,1.65142 -2.049699,0.75291 -4.661305,2.12587 -5.803082,3.05016 -1.55922,1.26226 -2.543146,2.60045 -3.95405,5.3768 -1.320072,2.59946 -1.799217,4.03636 -1.612719,4.84115 0.145922,0.62956 0.594311,1.53402 0.996679,2.01006 0.402451,0.47599 1.569167,1.15599 2.593094,1.51064 1.02375,0.35495 4.229305,0.64612 7.123406,0.64738 2.894081,0.001 7.169023,-0.20123 9.49967,-0.45005 2.330669,-0.24885 5.508753,-0.81464 7.062569,-1.25631 1.553798,-0.44173 3.047802,-0.69059 3.320067,-0.55402 0.272069,0.13648 0.471012,-0.0181 0.442086,-0.34423 -0.03104,-0.35047 -1.504212,-0.59166 -3.604916,-0.58964 -1.954099,0.002 -6.034002,0.16682 -9.066008,0.36696 -3.032044,0.20012 -7.385512,0.30407 -9.674553,0.23051 -2.289067,-0.0736 -4.579964,-0.34393 -5.091132,-0.60035 -0.511168,-0.25643 -0.944592,-1.03159 -0.962847,-1.72252 -0.02043,-0.77166 0.655996,-2.41607 1.754328,-4.26367 1.426534,-2.39925 2.355818,-3.36444 4.592482,-4.76978 1.542127,-0.96891 3.879244,-2.08945 5.19409,-2.49076 1.314843,-0.40126 3.869986,-0.92281 5.677885,-1.15829 3.124353,-0.40692 3.221126,-0.46142 1.952192,-1.09797 z m 0.88862,2.28539 c -0.411961,-0.31651 -0.977004,-0.16333 -1.471044,0.40044 -0.441305,0.50341 -3.057156,1.85659 -5.813422,3.0074 -2.756304,1.15079 -6.151457,2.25421 -7.545062,2.4521 -1.432883,0.20352 -2.719978,0.73155 -2.962025,1.21407 -0.235419,0.46929 -0.191757,0.97105 0.097,1.1159 0.288794,0.14486 1.85724,-0.0258 3.485082,-0.37932 1.62779,-0.35348 4.272451,-1.07592 5.877927,-1.6066 1.605443,-0.53065 3.040836,-1.2075 3.189345,-1.50357 0.148575,-0.29617 1.410426,-0.98192 2.80437,-1.5244 1.393943,-0.54248 2.641555,-1.36449 2.771468,-1.82534 0.129737,-0.46092 -0.06576,-1.06796 -0.433636,-1.35068 z m -13.371921,0.87971 c 0.06104,0.10715 -0.07038,0.38169 -0.360666,0.7123 -0.387549,0.44117 -0.916778,0.82076 -1.17603,0.84385 -0.259079,0.023 -0.153684,-0.31848 0.233255,-0.76003 0.387538,-0.44118 0.916311,-0.82104 1.17557,-0.84408 0.06569,-0.007 0.107443,0.0118 0.127524,0.0477 z m 39.209658,38.04491 c 0.06283,-0.10509 -0.137677,0.20331 -0.189875,0.31407 -0.01015,0.0212 -0.02139,0.0422 -0.03174,0.0633 0.04182,-0.0701 0.07364,-0.13108 0.221626,-0.37736 z" />
  </g>
</svg>
