<?xml version="1.0" encoding="UTF-8" standalone="no"?>
<!-- Created with Inkscape (http://www.inkscape.org/) -->

<svg
   width="170mm"
   height="170mm"
   viewBox="0 0 170 170"
   version="1.1"
   id="svg1"
   inkscape:version="1.4 (e7c3feb1, 2024-10-09)"
   sodipodi:docname="face_sketch.svg"
   xmlns:inkscape="http://www.inkscape.org/namespaces/inkscape"
   xmlns:sodipodi="http://sodipodi.sourceforge.net/DTD/sodipodi-0.dtd"
   xmlns="http://www.w3.org/2000/svg"
   xmlns:svg="http://www.w3.org/2000/svg">
  <sodipodi:namedview
     id="namedview1"
     pagecolor="#ffffff"
     bordercolor="#000000"
     borderopacity="0.25"
     inkscape:showpageshadow="2"
     inkscape:pageopacity="0.0"
     inkscape:pagecheckerboard="0"
     inkscape:deskcolor="#d1d1d1"
     inkscape:document-units="mm"
     inkscape:zoom="0.69256046"
     inkscape:cx="395.63333"
     inkscape:cy="355.9256"
     inkscape:window-width="1920"
     inkscape:window-height="942"
     inkscape:window-x="0"
     inkscape:window-y="25"
     inkscape:window-maximized="1"
     inkscape:current-layer="layer1" />
  <defs
     id="defs1" />
  <g
     inkscape:label="Layer 1"
     inkscape:groupmode="layer"
     id="layer1">
    <path
       id="path2-7"
       style="fill:#000000;stroke-width:1.39063"
       d="m 115.8759,43.880946 3.7e-4,0.0016 c -0.76259,-0.08235 -1.262,-0.112971 -1.57356,-0.08718 -0.623,0.05036 -0.49238,0.326514 -0.21452,0.876883 0.39647,0.781631 0.75806,0.97535 1.22153,0.655582 0.44043,-0.303938 0.75234,-0.265937 0.94176,0.109268 0.15549,0.310403 0.55644,0.584481 0.89096,0.610066 0.36539,0.02855 0.32054,-0.178337 -0.11278,-0.516397 -0.50469,-0.39386 0.19572,-0.4601 2.33359,-0.221286 1.78307,0.199217 2.40866,0.383508 1.50297,0.443024 -1.19505,0.07818 -0.40416,0.475055 3.44458,1.72822 2.74813,0.894819 6.64451,2.61491 8.65793,3.821962 2.01338,1.207048 4.55606,2.958533 5.65035,3.892447 1.09424,0.933952 2.82258,2.8946 3.84089,4.357028 1.01826,1.462435 2.22729,3.809335 2.68738,5.215679 0.46005,1.40634 0.8833,3.531826 0.93983,4.722862 0.0665,1.399032 -0.29238,3.075974 -1.01374,4.737257 -0.76463,1.761781 -2.13435,3.479789 -4.34943,5.45713 -2.06829,1.846362 -4.63151,3.485365 -7.11527,4.548878 -2.13544,0.914374 -5.54962,1.954421 -7.58683,2.31078 -2.03717,0.356311 -6.24093,0.553546 -9.34126,0.438355 -3.29684,-0.122677 -7.17521,-0.592054 -9.34307,-1.132242 -2.03869,-0.507688 -4.91125,-1.652305 -6.38321,-2.542912 -1.471964,-0.890637 -3.372914,-2.596657 -4.224324,-3.791419 -0.85141,-1.194764 -1.87765,-3.377304 -2.28005,-4.849451 -0.40243,-1.472178 -0.76727,-3.876519 -0.81138,-5.343852 -0.0621,-2.069022 0.20569,-3.199718 1.19387,-5.035616 0.70075,-1.302046 1.29411,-2.481675 1.31766,-2.620956 0.0233,-0.139513 0.92119,-1.350242 1.99424,-2.691455 1.07304,-1.341184 3.155654,-3.283308 4.627604,-4.31589 1.47194,-1.032592 3.67196,-2.288623 4.88873,-2.791206 1.43794,-0.59389 2.6468,-0.762306 3.45403,-0.481581 0.68308,0.237442 1.26134,0.214455 1.28498,-0.0511 0.0232,-0.265585 -0.49838,-0.992032 -1.15949,-1.614523 -0.9571,-0.901189 -1.52755,-1.068435 -2.80358,-0.822377 -0.88137,0.170038 -2.79008,0.929467 -4.24056,1.687822 -1.45052,0.758311 -3.91277,2.547475 -5.472574,3.976067 -1.55979,1.428641 -3.46077,3.608367 -4.2238,4.844189 -0.76306,1.235848 -1.76392,3.383503 -2.22409,4.772166 -0.59364,1.791452 -0.77089,3.418442 -0.61076,5.601152 0.12423,1.691994 0.35783,3.527686 0.51975,4.080012 0.26211,0.893967 0.13012,0.85891 -1.20483,-0.324651 -0.8346,-0.740091 -2.23784,-1.40162 -3.1653,-1.491162 -0.91645,-0.08863 -2.27073,-0.03858 -3.00909,0.110819 -1.26855,0.256864 -1.36179,0.130028 -1.69899,-2.297059 -0.19643,-1.412666 -0.43852,-4.629971 -0.53856,-7.149401 -0.10005,-2.51944 -0.32608,-4.939778 -0.50159,-5.379566 -0.1754,-0.439788 -0.63796,-0.828268 -1.02823,-0.863014 -0.5402,-0.04809 -0.74813,0.674052 -0.87084,3.027533 -0.0889,1.700252 0.16365,5.695694 0.56101,8.878513 0.5169,4.140455 0.55224,5.929816 0.12336,6.288566 -0.32978,0.27587 -0.78301,0.485411 -1.00745,0.465428 -0.22434,-0.01997 -0.3763,-0.394347 -0.33737,-0.831596 0.0419,-0.47118 -0.18223,-0.668881 -0.550407,-0.484286 -0.386275,0.193527 -0.463014,0.09991 -0.202577,-0.247868 0.230408,-0.307829 -0.0096,-1.290832 -0.533397,-2.184462 -0.523583,-0.893624 -1.429346,-1.931541 -2.012523,-2.306817 -1.007958,-0.648644 -1.022968,-0.631037 -0.314673,0.358496 0.409796,0.572478 1.070765,1.854739 1.468714,2.849841 0.44422,1.110822 0.618798,2.985022 0.452323,4.854815 -0.20883,2.345572 -0.665426,3.671664 -1.984393,5.768344 -1.211957,1.926541 -2.989162,3.641561 -6.080968,5.867953 -2.809024,2.022787 -6.086207,3.798402 -9.178385,4.972193 -2.645146,1.004057 -6.332774,2.041173 -8.194395,2.30545 -1.861585,0.264311 -5.269585,0.316796 -7.57402,0.115809 -2.963086,-0.256742 -4.966058,-0.738073 -6.839606,-1.635681 -1.457166,-0.698177 -3.078776,-1.825438 -3.604167,-2.505601 -0.525405,-0.680125 -1.373776,-2.260758 -1.884936,-3.512572 -0.700344,-1.715036 -0.843847,-3.099688 -0.581424,-5.619102 0.263889,-2.534273 0.627364,-3.639635 1.50025,-4.566837 0.633455,-0.672715 1.072177,-1.598304 0.975398,-2.057386 -0.09675,-0.459055 0.354419,-1.366299 1.002799,-2.015527 l 1.178535,-1.180677 -0.994641,1.370332 c -0.547384,0.753435 -0.889526,1.495949 -0.760193,1.650616 0.129284,0.154543 0.711767,-0.449172 1.295152,-1.342546 0.583434,-0.893348 1.114757,-1.79297 1.180334,-1.999197 0.06564,-0.20619 0.168909,-0.606635 0.229139,-0.889588 0.06132,-0.282786 0.674991,-0.359599 1.365079,-0.170032 0.860715,0.236653 1.274215,0.1163 1.318966,-0.386331 0.03585,-0.402276 -0.145229,-0.750157 -0.402251,-0.773041 -0.257311,-0.02293 -0.608259,0.235166 -0.781004,0.573268 -0.236669,0.463418 -0.310695,0.460569 -0.299633,-0.0085 0.0088,-0.342727 0.525198,-0.840611 1.148545,-1.106046 0.796485,-0.339272 1.015361,-0.32442 0.736636,0.04743 -0.218128,0.291584 -0.07491,0.558832 0.32168,0.594141 0.395318,0.03517 1.770555,-0.563795 3.056001,-1.33103 1.285404,-0.76723 3.19652,-1.697402 4.246311,-2.067079 1.049804,-0.369717 2.002776,-1.039416 2.117981,-1.488217 0.122711,-0.477248 -0.230522,-0.973645 -0.849187,-1.195714 -0.581844,-0.208924 -1.646118,-0.214457 -2.365227,-0.01188 -0.719135,0.202543 -2.737969,1.279305 -4.486464,2.39278 -1.748466,1.113479 -4.348231,3.136302 -5.777629,4.494691 -1.429459,1.358394 -3.462069,3.896746 -4.516775,5.640933 -1.584044,2.619594 -1.967752,3.764024 -2.204559,6.580401 -0.260105,3.083682 -0.368157,3.356856 -1.132611,2.855848 -0.464809,-0.304711 -2.985373,-0.716966 -5.601955,-0.916408 -2.616465,-0.200428 -5.463771,-0.229509 -6.326632,-0.06678 -1.0609,0.199934 -0.32314,0.328317 2.278503,0.397411 2.63366,0.06977 3.591489,0.239544 3.036972,0.537586 -0.445499,0.239555 -1.269431,0.401555 -1.831272,0.359915 -0.561753,-0.04297 -1.299949,0.07015 -1.640735,0.24769 -0.340881,0.177339 1.862208,0.546751 4.895925,0.822416 3.033586,0.277119 5.421899,0.314038 5.308001,0.0866 -0.114136,-0.227258 0.123703,-0.38328 0.526909,-0.347381 0.403342,0.03594 0.959294,0.785568 1.235343,1.665888 0.275971,0.880281 1.518872,2.693369 2.762425,4.029104 1.451164,1.558725 3.204476,2.799986 4.894057,3.465575 1.447839,0.570407 3.433829,1.127907 4.413729,1.238634 0.980021,0.108935 3.880366,0.01817 6.445288,-0.205402 2.564921,-0.223546 5.7366,-0.769192 7.048588,-1.212658 1.311997,-0.443465 3.048017,-1.090007 3.857102,-1.436611 0.809086,-0.346613 1.742279,-0.439611 2.074468,-0.207006 0.332194,0.232577 0.455017,0.224848 0.271935,-0.01836 -0.183191,-0.242792 0.812217,-1.033803 2.21241,-1.756326 1.400192,-0.722514 2.58554,-1.220235 2.633944,-1.106615 0.04841,0.113752 0.464471,-0.22361 0.924734,-0.74828 0.460254,-0.52457 1.143097,-0.935724 1.51752,-0.914956 0.374272,0.02247 0.6443,-0.262075 0.599091,-0.627855 -0.04505,-0.365696 0.149398,-0.49197 0.432719,-0.280029 0.283457,0.211983 0.911405,0.114075 1.396135,-0.22174 0.484611,-0.33435 1.848842,-1.701302 3.031402,-3.035948 1.182602,-1.334672 2.620486,-3.613003 3.195916,-5.064371 0.7193,-1.81414 1.69461,-3.133786 3.11992,-4.222365 1.14025,-0.870861 2.78842,-1.823688 3.66303,-2.117974 0.87464,-0.294244 2.1967,-0.362604 2.93749,-0.151436 0.82698,0.235808 1.81053,1.197538 2.54743,2.492964 0.66011,1.160362 1.41653,2.129239 1.68123,2.152806 0.26807,0.02382 0.40498,-0.70319 0.31017,-1.642429 -0.1487,-1.474015 -0.10402,-1.551526 0.35126,-0.612048 0.28655,0.59106 1.12961,2.01439 1.87343,3.163954 0.74386,1.149537 2.1331,2.676431 3.08791,3.391925 0.95484,0.715508 3.071024,1.90128 4.702324,2.635541 1.63131,0.734273 3.52864,1.514508 4.21614,1.733099 0.68748,0.218699 3.31424,0.601989 5.83697,0.852248 2.52281,0.249915 5.97728,0.428246 7.67683,0.396075 1.69953,-0.03218 4.11176,-0.29243 5.35996,-0.578561 1.24824,-0.28605 2.4699,-0.369971 2.71542,-0.186252 0.24553,0.183687 0.46817,0.09097 0.49462,-0.206029 0.0268,-0.297061 0.39845,-0.509792 0.82746,-0.471596 0.42882,0.03817 2.27203,-0.520822 4.09565,-1.243133 2.08788,-0.826939 4.72045,-2.511084 7.10952,-4.548352 2.08671,-1.779385 4.28649,-4.156887 4.88854,-5.283061 0.60202,-1.126189 1.37601,-3.526316 1.72003,-5.333778 0.45874,-2.409833 0.46108,-3.095153 0.008,-2.569956 -0.49752,0.57677 -0.54927,0.496703 -0.26444,-0.409538 0.23587,-0.750509 0.11314,-1.146351 -0.36367,-1.188803 -0.39457,-0.03511 -0.70058,-0.254262 -0.67986,-0.486991 0.0205,-0.23296 1.4598,-1.738558 3.19752,-3.345934 1.73769,-1.60734 5.13477,-4.178152 7.54942,-5.713341 2.4147,-1.535186 4.64049,-2.930474 4.94581,-3.100005 0.30552,-0.169664 0.41508,-0.47497 0.24412,-0.679176 -0.17074,-0.204116 -0.97027,0.05863 -1.77709,0.584713 -0.80682,0.525961 -1.9937,0.908878 -2.63718,0.851587 -0.64353,-0.05733 -1.53338,0.199243 -1.97713,0.570533 -0.44377,0.371118 -0.92983,0.528091 -1.08053,0.347897 -0.15083,-0.180306 -0.98688,0.277015 -1.85802,1.0159 -0.87111,0.738919 -2.70196,2.215641 -4.06852,3.280838 l -2.4847,1.935983 -0.72787,-1.451061 c -0.40043,-0.798388 -1.3281,-2.229195 -2.0615,-3.178626 -0.73345,-0.949435 -2.49511,-2.754585 -3.91463,-4.012359 -1.41947,-1.257759 -3.66809,-2.960587 -4.99696,-3.783949 -1.32892,-0.823367 -4.19447,-2.305794 -6.36871,-3.294407 -3.11625,-1.416962 -5.11895,-1.947974 -9.4581,-2.509023 -1.36423,-0.176382 -2.39013,-0.30866 -3.15277,-0.390691 z m -57.30872,17.28417 c -5.885062,-0.513126 -7.820976,-0.499042 -9.467629,0.0629 -1.13845,0.388509 -1.95141,0.849067 -1.806226,1.022586 0.145279,0.173678 0.724202,0.119813 1.286385,-0.119451 0.562176,-0.239277 2.161022,-0.435327 3.553082,-0.434371 1.392038,7.63e-4 2.062023,0.06734 1.489371,0.147129 -0.57269,0.07977 -1.291546,0.35853 -1.59761,0.619888 -0.37725,0.322204 -0.05496,0.416233 1.002319,0.291575 0.857337,-0.101017 3.627648,-0.02816 6.155667,0.163107 3.372128,0.255057 5.650304,0.751299 8.554065,1.8594 2.176841,0.830803 4.434477,1.606041 5.016526,1.722909 0.582088,0.116879 1.481721,0.511113 1.999292,0.876322 0.517588,0.365028 1.112533,0.686261 1.322231,0.713314 0.20975,0.02567 0.391037,-0.06254 0.403197,-0.199121 0.01216,-0.13654 -0.790378,-0.865499 -1.783626,-1.620287 -0.993235,-0.754798 -3.363809,-2.067858 -5.267607,-2.917772 -3.045788,-1.359646 -4.34988,-1.622506 -10.859436,-2.188133 z m -1.113493,0.205404 c 0.369421,0.03591 0.718108,0.09985 0.956454,0.183212 l -4.6e-5,5.15e-4 c 0.476342,0.170997 -0.053,0.225698 -1.17335,0.120177 -1.121609,-0.106889 -1.511587,-0.245752 -0.866208,-0.311105 l 8.9e-5,-9.96e-4 c 0.322609,-0.03302 0.713525,-0.02688 1.083058,0.0082 z m 26.056919,16.137892 c -0.39458,-0.03511 -0.86459,0.236565 -1.04411,0.60328 -0.17968,0.36678 -0.0309,3.810961 0.33082,7.652824 0.36166,3.84185 0.87818,8.557878 1.14732,10.480401 0.26915,1.922524 0.79649,4.265053 1.17174,5.206283 0.37519,0.94128 1.20176,2.55245 1.83748,3.57943 0.63572,1.02704 1.25849,1.63074 1.384,1.34243 0.12536,-0.28828 -0.13752,-1.79935 -0.58452,-3.35841 -0.44711,-1.5591 -1.34416,-7.278153 -1.99329,-12.708777 -0.64913,-5.430655 -1.25939,-10.517388 -1.35624,-11.303665 -0.0969,-0.786269 -0.49864,-1.458668 -0.8932,-1.493796 z m 28.321804,20.003892 c -0.34081,-0.03031 -0.49437,0.921698 -0.43191,2.677506 0.0634,1.78747 -0.25385,3.70129 -0.92194,5.56515 -0.60512,1.68792 -2.06052,4.05678 -3.5858,5.83641 -1.41191,1.64736 -4.40732,4.45014 -6.65673,6.2281 -2.249434,1.77797 -5.305304,3.75337 -6.791354,4.38938 -1.48601,0.63604 -4.08469,1.38702 -5.77413,1.6701 -1.68945,0.28307 -4.87637,0.35443 -7.08232,0.15802 -2.327867,-0.20723 -5.827942,-0.97166 -8.341582,-1.8218 -2.382049,-0.80563 -4.765017,-1.79108 -5.295071,-2.18973 -0.530095,-0.39866 -1.584881,-0.93777 -2.344186,-1.19809 -0.759264,-0.26047 -2.600636,-1.90955 -4.091912,-3.66445 -1.583112,-1.863 -2.902207,-4.00767 -3.170665,-5.15445 -0.264806,-1.13107 -0.791305,-1.99366 -1.240986,-2.0337 -0.594844,-0.0528 -0.729596,0.27222 -0.56399,1.36406 0.119456,0.78825 1.068004,2.76224 2.107483,4.38687 1.039439,1.62463 3.105569,3.95181 4.59172,5.17148 1.486147,1.21972 4.225802,2.93332 6.08801,3.80742 1.862197,0.87413 4.357462,1.72195 5.544852,1.88408 1.18739,0.16203 2.148142,0.4164 2.134853,0.56571 -0.01331,0.14944 1.904989,0.44404 4.262934,0.65398 2.36925,0.21089 4.17951,0.16729 4.04702,-0.0967 -0.13588,-0.27109 0.57461,-0.25072 1.63862,0.0499 1.42647,0.40152 1.79761,0.3685 1.54466,-0.13589 -0.23035,-0.4596 -0.0865,-0.54289 0.47025,-0.27045 0.44222,0.21637 0.97037,0.17227 1.17357,-0.0994 0.20335,-0.27157 0.6793,-0.34308 1.0574,-0.15799 0.37811,0.185 2.02943,-0.0443 3.6693,-0.51015 2.24404,-0.63724 4.0925,-1.75829 7.474384,-4.53246 2.47132,-2.02724 4.45746,-3.9786 4.41309,-4.33654 -0.0443,-0.35793 0.6221,-1.14313 1.48141,-1.74464 0.92875,-0.65007 1.56876,-1.54373 1.5788,-2.20342 0.01,-0.61038 0.15825,-1.00434 0.33059,-0.87537 0.17236,0.12914 1.05202,-1.09567 1.95441,-2.72198 1.12997,-2.03645 1.71819,-3.82712 1.88956,-5.75189 0.13658,-1.53711 0.051,-3.259648 -0.19094,-3.828169 -0.24233,-0.56852 -0.67855,-1.054962 -0.9694,-1.080858 z" />
  </g>
</svg>
