<?xml version="1.0" encoding="UTF-8" standalone="no"?>
<!-- Created with Inkscape (http://www.inkscape.org/) -->

<svg
   width="170mm"
   height="170mm"
   viewBox="0 0 170 170"
   version="1.1"
   id="svg1"
   inkscape:version="1.4 (e7c3feb1, 2024-10-09)"
   sodipodi:docname="face_sketch.svg"
   inkscape:export-filename="favicon.png"
   inkscape:export-xdpi="9.5623522"
   inkscape:export-ydpi="9.5623522"
   xmlns:inkscape="http://www.inkscape.org/namespaces/inkscape"
   xmlns:sodipodi="http://sodipodi.sourceforge.net/DTD/sodipodi-0.dtd"
   xmlns="http://www.w3.org/2000/svg"
   xmlns:svg="http://www.w3.org/2000/svg">
  <sodipodi:namedview
     id="namedview1"
     pagecolor="#ffffff"
     bordercolor="#000000"
     borderopacity="0.25"
     inkscape:showpageshadow="2"
     inkscape:pageopacity="0.0"
     inkscape:pagecheckerboard="0"
     inkscape:deskcolor="#d1d1d1"
     inkscape:document-units="mm"
     inkscape:zoom="0.79"
     inkscape:cx="365.82278"
     inkscape:cy="346.20253"
     inkscape:window-width="1920"
     inkscape:window-height="942"
     inkscape:window-x="0"
     inkscape:window-y="25"
     inkscape:window-maximized="1"
     inkscape:current-layer="layer1" />
  <defs
     id="defs1" />
  <g
     inkscape:label="Layer 1"
     inkscape:groupmode="layer"
     id="layer1">
    <path
       id="path2-7"
       style="fill:#000000;stroke-width:1.58989"
       d="m 114.97055,37.643878 4.3e-4,0.0018 c -0.87187,-0.09415 -1.44284,-0.129159 -1.79904,-0.09967 -0.71227,0.05758 -0.56293,0.3733 -0.24526,1.002532 0.45328,0.893631 0.86668,1.115109 1.39656,0.749521 0.50354,-0.34749 0.86015,-0.304043 1.07671,0.124925 0.17777,0.354881 0.63617,0.668232 1.01863,0.697483 0.41774,0.03264 0.36647,-0.203891 -0.12894,-0.590392 -0.57701,-0.450297 0.22376,-0.526028 2.66797,-0.252994 2.03856,0.227763 2.7538,0.438461 1.71833,0.506505 -1.36629,0.08938 -0.46207,0.543126 3.93816,1.975858 3.14191,1.023038 7.5966,2.989602 9.89853,4.369613 2.30187,1.380007 5.2089,3.382463 6.45999,4.450198 1.25103,1.067779 3.22703,3.309369 4.39125,4.98135 1.16417,1.671988 2.54644,4.355177 3.07246,5.963037 0.52597,1.607855 1.00987,4.037904 1.0745,5.399604 0.076,1.5995 -0.33428,3.516732 -1.159,5.416062 -0.8742,2.014227 -2.44018,3.97841 -4.97266,6.239085 -2.36466,2.110929 -5.29517,3.984782 -8.13483,5.200695 -2.44143,1.04539 -6.34483,2.23447 -8.67395,2.641893 -2.32908,0.407366 -7.1352,0.632857 -10.67977,0.501161 -3.76925,-0.140259 -8.20336,-0.676885 -10.68185,-1.294479 -2.33082,-0.580437 -5.614987,-1.889071 -7.297865,-2.907285 -1.68288,-1.018261 -3.856219,-2.968737 -4.829628,-4.334698 -0.973409,-1.365962 -2.1467,-3.86124 -2.60676,-5.544332 -0.460094,-1.683127 -0.877212,-4.431988 -0.927643,-6.109576 -0.071,-2.365493 0.235164,-3.658208 1.364941,-5.757173 0.801161,-1.488617 1.479543,-2.837275 1.506468,-2.996514 0.02664,-0.159504 1.053188,-1.543719 2.279996,-3.077115 1.226797,-1.533364 3.607826,-3.753776 5.290694,-4.934317 1.682857,-1.180553 4.198117,-2.616562 5.589237,-3.19116 1.64398,-0.678989 3.02606,-0.871537 3.94896,-0.550587 0.78096,0.271465 1.44208,0.245184 1.46911,-0.05842 0.0265,-0.303641 -0.56979,-1.134181 -1.32563,-1.845869 -1.09425,-1.030321 -1.74644,-1.221532 -3.20532,-0.940216 -1.00766,0.194403 -3.18987,1.062651 -4.84819,1.929671 -1.658357,0.86697 -4.473425,2.912504 -6.256736,4.5458 -1.783293,1.633352 -3.956666,4.125412 -4.829031,5.538316 -0.872399,1.412934 -2.016673,3.868328 -2.542781,5.455973 -0.678703,2.04815 -0.881351,3.908273 -0.698276,6.403745 0.142031,1.934441 0.409103,4.03317 0.594225,4.664639 0.299668,1.022065 0.148765,0.981984 -1.377471,-0.37117 -0.95419,-0.846139 -2.558502,-1.602459 -3.618858,-1.704832 -1.047769,-0.101329 -2.596104,-0.04411 -3.440264,0.126699 -1.450322,0.29367 -1.556922,0.14866 -1.94244,-2.626206 -0.224576,-1.615088 -0.501356,-5.293403 -0.61573,-8.173844 -0.114387,-2.880452 -0.372805,-5.647602 -0.573464,-6.150407 -0.200533,-0.502806 -0.729373,-0.946951 -1.175565,-0.986676 -0.617606,-0.05498 -0.85533,0.770637 -0.995624,3.46135 -0.101638,1.943882 0.1871,6.511834 0.641398,10.150721 0.590967,4.733744 0.631371,6.779503 0.141036,7.189659 -0.377034,0.315399 -0.895208,0.554966 -1.151808,0.532119 -0.256486,-0.02283 -0.43022,-0.450853 -0.385712,-0.950756 0.0479,-0.538695 -0.208342,-0.764725 -0.629275,-0.553679 -0.441625,0.221257 -0.52936,0.114226 -0.231604,-0.283385 0.263423,-0.351938 -0.01098,-1.475797 -0.609828,-2.497475 -0.598608,-1.021672 -1.634158,-2.208313 -2.300899,-2.637363 -1.152389,-0.741588 -1.16955,-0.721459 -0.359763,0.409865 0.468516,0.654509 1.224196,2.120506 1.679167,3.258197 0.507873,1.269992 0.707466,3.412748 0.517137,5.550465 -0.238753,2.68167 -0.760775,4.197779 -2.268738,6.594891 -1.385619,2.202595 -3.417481,4.163362 -6.952314,6.708773 -3.211531,2.31263 -6.958304,4.34268 -10.493562,5.68466 -3.024171,1.14793 -7.240201,2.333655 -9.368575,2.635805 -2.128333,0.302177 -6.024667,0.362177 -8.659306,0.132397 -3.387669,-0.293517 -5.677648,-0.843842 -7.819658,-1.870052 -1.665964,-0.79823 -3.519936,-2.08701 -4.120611,-2.86463 -0.60069,-0.77759 -1.570625,-2.58471 -2.155029,-4.015896 -0.800697,-1.960775 -0.964763,-3.543833 -0.664737,-6.424262 0.301702,-2.897409 0.717259,-4.161159 1.715222,-5.221221 0.724223,-0.769109 1.22581,-1.827326 1.115163,-2.35219 -0.110613,-0.524833 0.405204,-1.562077 1.146491,-2.304333 l 1.347408,-1.349857 -1.137164,1.566688 c -0.625819,0.861395 -1.016986,1.710304 -0.869121,1.887133 0.147809,0.176688 0.813756,-0.513534 1.480735,-1.53492 0.667035,-1.021356 1.274491,-2.049886 1.349465,-2.285663 0.07504,-0.235735 0.193112,-0.69356 0.261972,-1.017058 0.07011,-0.323306 0.771711,-0.411126 1.560682,-0.194396 0.984048,0.270563 1.456798,0.132965 1.507962,-0.441688 0.04099,-0.459919 -0.166039,-0.857648 -0.45989,-0.883811 -0.294181,-0.02622 -0.695417,0.268863 -0.892915,0.655412 -0.270581,0.529821 -0.355214,0.526564 -0.342567,-0.0097 0.01006,-0.391837 0.600454,-0.961063 1.313121,-1.264532 0.910613,-0.387887 1.160852,-0.370906 0.842189,0.05423 -0.249384,0.333365 -0.08564,0.638908 0.367773,0.679276 0.451964,0.04021 2.024259,-0.644581 3.493898,-1.521754 1.46959,-0.877167 3.654551,-1.940624 4.854768,-2.363272 1.200231,-0.422694 2.289755,-1.188355 2.421467,-1.701465 0.140295,-0.545633 -0.263553,-1.113159 -0.970867,-1.367048 -0.665217,-0.238861 -1.881991,-0.245187 -2.704142,-0.01358 -0.82218,0.231566 -3.130294,1.462618 -5.129332,2.735643 -1.999005,1.27303 -4.971292,3.585705 -6.60551,5.138739 -1.634287,1.553039 -3.958151,4.455113 -5.163986,6.449226 -1.811023,2.994957 -2.249713,4.303373 -2.520452,7.523316 -0.297376,3.525543 -0.420911,3.837856 -1.294904,3.265055 -0.531412,-0.348372 -3.413149,-0.819693 -6.4046623,-1.047711 -2.9913797,-0.22915 -6.2466778,-0.262397 -7.2331787,-0.07637 -1.21291697,0.228578 -0.3694429,0.375354 2.6049912,0.454355 3.0110388,0.0798 4.1061158,0.273864 3.4721418,0.61461 -0.509335,0.273887 -1.451329,0.4591 -2.0936762,0.411494 -0.642247,-0.04916 -1.4862196,0.08014 -1.875837,0.283181 -0.3897261,0.202751 2.1290452,0.625094 5.5974645,0.940254 3.4682707,0.316829 6.1988067,0.359039 6.0685877,0.09901 -0.13049,-0.259813 0.141429,-0.438201 0.60241,-0.397156 0.461137,0.04104 1.096752,0.898135 1.412356,1.904591 0.315516,1.00641 1.736513,3.0793 3.158255,4.60643 1.659102,1.78208 3.663648,3.201202 5.59533,3.962169 1.655301,0.652137 3.925864,1.289514 5.046175,1.416101 1.120449,0.12455 4.436386,0.0208 7.368838,-0.234827 2.93245,-0.25557 6.558601,-0.879407 8.058584,-1.386414 1.499994,-0.507007 3.48477,-1.246189 4.409789,-1.642469 0.925021,-0.39627 1.991931,-0.5026 2.37172,-0.23666 0.379794,0.2659 0.520217,0.25706 0.310901,-0.021 -0.209441,-0.27759 0.9286,-1.18194 2.529427,-2.00799 1.600827,-0.82604 2.956024,-1.39508 3.011364,-1.26518 0.05535,0.13005 0.531025,-0.25565 1.05724,-0.8555 0.526204,-0.59974 1.306892,-1.06981 1.734966,-1.04606 0.427902,0.0257 0.736622,-0.29964 0.684935,-0.71783 -0.05151,-0.41809 0.170806,-0.56247 0.494724,-0.32015 0.324074,0.24236 1.042001,0.13042 1.596188,-0.25351 0.554051,-0.38226 2.113764,-1.945084 3.465774,-3.470965 1.352057,-1.525916 2.995977,-4.130721 3.653861,-5.790052 0.822369,-2.074089 1.937431,-3.582828 3.566975,-4.82739 1.303637,-0.995647 3.187975,-2.085005 4.187908,-2.42146 0.999968,-0.336406 2.511467,-0.414562 3.358405,-0.173135 0.945478,0.269597 2.069962,1.369134 2.912453,2.850182 0.754697,1.326631 1.619505,2.434339 1.922134,2.461283 0.306482,0.02723 0.46301,-0.80395 0.354615,-1.877774 -0.170007,-1.685227 -0.118925,-1.773845 0.401592,-0.699748 0.32761,0.675753 1.291473,2.303033 2.141875,3.617319 0.850448,1.314255 2.438753,3.059939 3.530379,3.877953 1.091659,0.818035 3.511071,2.173715 5.376116,3.013188 1.86506,0.839495 4.03426,1.731525 4.82028,1.981437 0.78598,0.250036 3.78914,0.688246 6.67335,0.974362 2.88431,0.28573 6.83377,0.48961 8.77685,0.45283 1.94306,-0.0368 4.70094,-0.33433 6.12799,-0.66146 1.4271,-0.327036 2.82382,-0.422986 3.10452,-0.212946 0.28071,0.210006 0.53525,0.10404 0.56549,-0.23555 0.0306,-0.339622 0.45555,-0.582834 0.94603,-0.53916 0.49027,0.04367 2.59759,-0.595449 4.68252,-1.421259 2.38705,-0.945433 5.39684,-2.870906 8.12825,-5.200094 2.38571,-2.034355 4.9007,-4.75253 5.58902,-6.040075 0.68828,-1.287561 1.57318,-4.031604 1.96649,-6.098058 0.52448,-2.75514 0.52715,-3.53866 0.009,-2.938207 -0.56881,0.659416 -0.62798,0.567876 -0.30233,-0.468221 0.26966,-0.85805 0.12935,-1.310612 -0.41578,-1.359147 -0.45111,-0.04014 -0.80097,-0.290696 -0.77728,-0.556773 0.0234,-0.266341 1.66897,-1.987677 3.65569,-3.825375 1.98669,-1.837656 5.87054,-4.776842 8.63118,-6.532009 2.76071,-1.755164 5.30543,-3.350384 5.6545,-3.544207 0.3493,-0.193975 0.47456,-0.543029 0.2791,-0.776495 -0.1952,-0.233364 -1.1093,0.06703 -2.03173,0.668497 -0.92243,0.601326 -2.27938,1.039111 -3.01506,0.973611 -0.73574,-0.06555 -1.7531,0.227793 -2.26043,0.652285 -0.50736,0.424296 -1.06307,0.603762 -1.23536,0.397747 -0.17245,-0.206142 -1.1283,0.316709 -2.12426,1.161469 -0.99593,0.8448 -3.08913,2.533122 -4.6515,3.750952 l -2.84074,2.213391 -0.83216,-1.658984 c -0.45781,-0.91279 -1.51841,-2.548618 -2.3569,-3.634094 -0.83854,-1.08548 -2.85263,-3.149291 -4.47556,-4.587292 -1.62286,-1.437984 -4.19369,-3.384812 -5.71297,-4.326154 -1.51935,-0.941348 -4.7955,-2.636193 -7.28129,-3.766465 -3.56278,-1.619999 -5.85245,-2.2271 -10.81336,-2.868542 -1.55971,-0.201656 -2.73261,-0.352888 -3.60453,-0.446674 z m -65.520521,19.76083 c -6.728337,-0.586652 -8.941649,-0.57055 -10.824252,0.07191 -1.301579,0.444179 -2.231029,0.97073 -2.065041,1.169113 0.166096,0.198564 0.827973,0.136981 1.470712,-0.136567 0.64273,-0.273563 2.470676,-0.497706 4.062205,-0.496613 1.591504,8.73e-4 2.357492,0.07699 1.702784,0.168212 -0.654751,0.0912 -1.476612,0.409904 -1.826532,0.708712 -0.431307,0.368373 -0.06284,0.475875 1.145941,0.333355 0.980186,-0.115492 4.147457,-0.0322 7.037717,0.186478 3.855323,0.291605 6.45994,0.858954 9.779783,2.125835 2.488762,0.949849 5.069896,1.836172 5.735347,1.969786 0.665496,0.133627 1.694038,0.584351 2.285772,1.001891 0.591753,0.417333 1.271948,0.784595 1.511694,0.815525 0.239805,0.02935 0.447069,-0.0715 0.460972,-0.227653 0.0139,-0.156105 -0.903632,-0.989517 -2.039203,-1.852459 -1.135557,-0.862954 -3.845812,-2.364163 -6.022406,-3.335862 -3.482221,-1.55447 -4.973177,-1.854996 -12.415492,-2.501672 z m -1.273046,0.234836 c 0.422355,0.04106 0.821006,0.114158 1.093505,0.209465 l -5.3e-5,5.89e-4 c 0.544597,0.195499 -0.06059,0.258038 -1.34148,0.137397 -1.282325,-0.122205 -1.728183,-0.280966 -0.990328,-0.355683 l 1.02e-4,-0.0011 c 0.368836,-0.03775 0.815767,-0.03073 1.23825,0.0094 z m 29.790632,18.450302 c -0.45112,-0.04014 -0.988478,0.270462 -1.193721,0.689724 -0.205427,0.419336 -0.03533,4.357036 0.378223,8.749399 0.413483,4.392344 1.004015,9.784144 1.31172,11.982146 0.307717,2.197998 0.91062,4.876185 1.33964,5.952285 0.428951,1.07615 1.373961,2.91819 2.100773,4.09233 0.726813,1.1742 1.43882,1.86441 1.582315,1.53478 0.143323,-0.32958 -0.157226,-2.05718 -0.668277,-3.83963 -0.511176,-1.78251 -1.536765,-8.321042 -2.278909,-14.529817 -0.742145,-6.208811 -1.439849,-12.024431 -1.550577,-12.923374 -0.110785,-0.898934 -0.57009,-1.667682 -1.021187,-1.707843 z m 32.380055,22.87025 c -0.38965,-0.0346 -0.56521,1.053764 -0.4938,3.061164 0.0725,2.0436 -0.29023,4.23165 -1.05405,6.36259 -0.69183,1.92978 -2.35577,4.63808 -4.09961,6.67271 -1.61423,1.88341 -5.038847,5.0878 -7.610575,7.12053 -2.571756,2.03273 -6.065504,4.29119 -7.764491,5.01834 -1.698941,0.72717 -4.669988,1.58576 -6.601509,1.90941 -1.931532,0.32363 -5.575108,0.40521 -8.09715,0.18066 -2.661428,-0.23693 -6.663032,-1.11089 -9.536853,-2.08285 -2.723374,-0.92107 -5.447799,-2.04772 -6.053805,-2.5035 -0.606053,-0.45578 -1.81198,-1.07214 -2.680086,-1.36976 -0.868059,-0.29779 -2.973283,-2.18317 -4.678245,-4.18953 -1.809957,-2.12995 -3.318066,-4.58194 -3.624991,-5.89304 -0.302751,-1.29314 -0.904692,-2.27933 -1.418808,-2.32511 -0.68008,-0.0604 -0.83414,0.31123 -0.644805,1.55952 0.136573,0.9012 1.221039,3.15804 2.409466,5.01547 1.188381,1.85742 3.550568,4.51806 5.249671,5.9125 1.699098,1.3945 4.83132,3.35364 6.960365,4.35299 2.129032,0.99938 4.981845,1.96869 6.339377,2.15405 1.357532,0.18525 2.455951,0.47607 2.440758,0.64677 -0.01522,0.17085 2.177956,0.50767 4.873772,0.74769 2.708742,0.24111 4.778395,0.19126 4.62692,-0.11056 -0.15535,-0.30993 0.656947,-0.28664 1.873419,0.0571 1.63087,0.45906 2.055191,0.42131 1.765996,-0.15536 -0.263357,-0.52545 -0.09889,-0.62068 0.537632,-0.3092 0.505586,0.24737 1.109415,0.19695 1.341732,-0.11364 0.232488,-0.31049 0.776637,-0.39224 1.208915,-0.18063 0.43229,0.21151 2.320229,-0.0506 4.195077,-0.58325 2.56559,-0.72855 4.678917,-2.01024 8.545393,-5.18192 2.825435,-2.31773 5.096165,-4.5487 5.045435,-4.95793 -0.0506,-0.40921 0.71125,-1.30693 1.69369,-1.99463 1.06183,-0.74322 1.79355,-1.76493 1.80502,-2.51915 0.0114,-0.69784 0.18093,-1.14825 0.37796,-1.0008 0.19706,0.14765 1.20277,-1.25267 2.23446,-3.11201 1.29189,-2.32826 1.9644,-4.37551 2.16032,-6.57609 0.15616,-1.75736 0.0583,-3.72672 -0.2183,-4.37671 -0.27705,-0.649977 -0.77578,-1.206114 -1.1083,-1.235724 z" />
  </g>
</svg>
